<svg width="113" height="112" viewBox="0 0 113 112" fill="none" xmlns="http://www.w3.org/2000/svg">
<path d="M47.1667 65.3333H56.5001M56.5001 65.3333H65.8334M56.5001 65.3333V74.6667M56.5001 65.3333V56" stroke="black" stroke-opacity="0.36" stroke-width="7" stroke-linecap="round"/>
<path d="M9.83325 32.4322C9.83325 28.3137 9.83325 26.2544 10.1569 24.5391C11.5816 16.9881 17.488 11.0817 25.0391 9.65698C26.7544 9.33334 28.8136 9.33334 32.9321 9.33334C34.7366 9.33334 35.6388 9.33334 36.5059 9.41443C40.2443 9.76401 43.7904 11.2328 46.681 13.6291C47.3515 14.1849 47.9894 14.8229 49.2654 16.0988L51.8333 18.6667C55.6402 22.4736 57.5437 24.3771 59.8231 25.6453C61.0753 26.342 62.4035 26.8922 63.7816 27.285C66.2901 28 68.982 28 74.3659 28H76.1097C88.3941 28 94.5363 28 98.5287 31.5908C98.8959 31.9211 99.2455 32.2707 99.5758 32.6379C103.167 36.6303 103.167 42.7725 103.167 55.0569V65.3333C103.167 82.9325 103.167 91.732 97.6992 97.1993C92.2319 102.667 83.4324 102.667 65.8333 102.667H47.1666C29.5675 102.667 20.7679 102.667 15.3006 97.1993C9.83325 91.732 9.83325 82.9325 9.83325 65.3333V32.4322Z" stroke="black" stroke-opacity="0.36" stroke-width="7"/>
</svg>
