<svg width="14" height="11" viewBox="0 0 14 11" fill="none" xmlns="http://www.w3.org/2000/svg">
<path d="M13.234 2.04628C13.7021 1.57816 13.7021 0.8192 13.234 0.351086C12.7659 -0.117029 12.0069 -0.117029 11.5388 0.351086L7.96698 3.9229L4.39517 7.49471L2.04628 5.14581C1.57816 4.6777 0.819201 4.6777 0.351086 5.14581C-0.117029 5.61393 -0.117029 6.37289 0.351086 6.84101L3.54757 10.0375C4.01568 10.5056 4.77465 10.5056 5.24277 10.0375L13.234 2.04628Z" fill="#109A67"/>
<path d="M13.234 2.04628C13.7021 1.57816 13.7021 0.8192 13.234 0.351086C12.7659 -0.117029 12.0069 -0.117029 11.5388 0.351086L7.96698 3.9229L4.39517 7.49471L2.04628 5.14581C1.57816 4.6777 0.819201 4.6777 0.351086 5.14581C-0.117029 5.61393 -0.117029 6.37289 0.351086 6.84101L3.54757 10.0375C4.01568 10.5056 4.77465 10.5056 5.24277 10.0375L13.234 2.04628Z" fill="#109A67"/>
</svg>
