<svg width="40" height="40" viewBox="0 0 40 40" fill="none" xmlns="http://www.w3.org/2000/svg">
<circle cx="19.9999" cy="20.0002" r="16.6667" stroke="black" stroke-opacity="0.87" stroke-width="1.5"/>
<path opacity="0.5" d="M10 7.85071C11.3004 9.03493 13.9792 12.2718 14.2913 15.7455C14.5831 18.9924 16.7262 21.6308 20 21.6665C21.2581 21.6802 22.5306 20.7713 22.5273 19.5131C22.5263 19.124 22.4621 18.7262 22.3616 18.3603C22.2218 17.8512 22.2094 17.2656 22.5 16.6665C23.5165 14.5707 25.5156 14.0078 27.0998 12.8696C27.8023 12.3648 28.4432 11.8323 28.7259 11.4033C29.5061 10.2191 30.2864 7.85071 29.8962 6.6665" stroke="black" stroke-opacity="0.87" stroke-width="1.5"/>
<path opacity="0.5" d="M36.6667 21.6665C36.1178 23.2182 35.7292 27.2915 29.5305 27.3562C29.5305 27.3562 24.041 27.3562 22.3942 30.4596C21.0767 32.9424 21.8452 35.632 22.3942 36.6665" stroke="black" stroke-opacity="0.87" stroke-width="1.5"/>
</svg>
