<svg width="40" height="40" viewBox="0 0 40 40" fill="none" xmlns="http://www.w3.org/2000/svg">
<path d="M28.3333 15.0034C31.9583 15.0236 33.9215 15.1843 35.2021 16.465C36.6666 17.9295 36.6666 20.2865 36.6666 25.0005V26.6672C36.6666 31.3812 36.6666 33.7383 35.2021 35.2027C33.7377 36.6672 31.3806 36.6672 26.6666 36.6672H13.3333C8.61921 36.6672 6.26218 36.6672 4.79772 35.2027C3.33325 33.7383 3.33325 31.3812 3.33325 26.6672L3.33325 25.0005C3.33325 20.2865 3.33325 17.9295 4.79772 16.465C6.07836 15.1843 8.04154 15.0236 11.6666 15.0034" stroke="black" stroke-opacity="0.87" stroke-width="1.5" stroke-linecap="round"/>
<path d="M20 3.3335L20 25.0002M20 25.0002L15 19.1668M20 25.0002L25 19.1668" stroke="black" stroke-opacity="0.87" stroke-width="1.5" stroke-linecap="round" stroke-linejoin="round"/>
</svg>
