<svg width="35" height="35" viewBox="0 0 35 35" fill="none" xmlns="http://www.w3.org/2000/svg">
<path d="M26.2502 14.5833L18.9585 14.5833" stroke="white" stroke-width="1.83333" stroke-linecap="round"/>
<path d="M14.5835 4.37506H24.0627C24.7399 4.37506 25.0786 4.37506 25.3629 4.41249C27.3261 4.67095 28.8709 6.2158 29.1294 8.17901C29.1668 8.46331 29.1668 8.80195 29.1668 9.47923" stroke="white" stroke-width="1.83333"/>
<path d="M2.91675 10.135C2.91675 8.84798 2.91675 8.20447 3.01788 7.66844C3.4631 5.30874 5.30886 3.46298 7.66856 3.01776C8.20459 2.91663 8.8481 2.91663 10.1351 2.91663C10.699 2.91663 10.981 2.91663 11.252 2.94196C12.4202 3.05121 13.5283 3.51022 14.4317 4.25904C14.6412 4.43273 14.8406 4.6321 15.2393 5.03084L16.0417 5.83329C17.2314 7.02297 17.8263 7.61781 18.5386 8.01412C18.9299 8.23183 19.345 8.40376 19.7756 8.52651C20.5595 8.74996 21.4007 8.74996 23.0832 8.74996H23.6281C27.467 8.74996 29.3864 8.74996 30.6341 9.8721C30.7488 9.97531 30.8581 10.0845 30.9613 10.1993C32.0834 11.4469 32.0834 13.3664 32.0834 17.2052V20.4166C32.0834 25.9163 32.0834 28.6662 30.3749 30.3747C28.6663 32.0833 25.9165 32.0833 20.4167 32.0833H14.5834C9.08369 32.0833 6.33384 32.0833 4.62529 30.3747C2.91675 28.6662 2.91675 25.9163 2.91675 20.4166V10.135Z" stroke="white" stroke-width="1.83333"/>
</svg>
