<svg width="35" height="35" viewBox="0 0 35 35" fill="none" xmlns="http://www.w3.org/2000/svg">
<path fill-rule="evenodd" clip-rule="evenodd" d="M3.67392 11.408C2.91675 12.7913 2.91675 14.4599 2.91675 17.7972V20.0154C2.91675 25.7042 2.91675 28.5486 4.62529 30.3159C6.33384 32.0832 9.08369 32.0832 14.5834 32.0832H20.4167C25.9165 32.0832 28.6663 32.0832 30.3749 30.3159C32.0834 28.5486 32.0834 25.7042 32.0834 20.0154V17.7972C32.0834 14.4599 32.0834 12.7913 31.3262 11.408C30.5691 10.0247 29.1858 9.16621 26.4192 7.44919L23.5025 5.63902C20.5781 3.82401 19.1158 2.9165 17.5001 2.9165C15.8843 2.9165 14.4221 3.82401 11.4976 5.63902L8.58096 7.44919C5.81438 9.16621 4.43108 10.0247 3.67392 11.408ZM13.7764 22.4545C13.2911 22.0948 12.6061 22.1966 12.2464 22.6819C11.8867 23.1671 11.9885 23.8521 12.4738 24.2119C13.8919 25.263 15.6262 25.8853 17.5001 25.8853C19.374 25.8853 21.1083 25.263 22.5264 24.2119C23.0117 23.8521 23.1135 23.1671 22.7538 22.6819C22.3941 22.1966 21.7091 22.0948 21.2238 22.4545C20.1616 23.2418 18.8795 23.6978 17.5001 23.6978C16.1206 23.6978 14.8386 23.2418 13.7764 22.4545Z" fill="white"/>
</svg>
