<svg width="35" height="35" viewBox="0 0 35 35" fill="none" xmlns="http://www.w3.org/2000/svg">
<path d="M13.1251 25.1561C12.521 25.1561 12.0313 25.6458 12.0313 26.2498C12.0313 26.8539 12.521 27.3436 13.1251 27.3436H21.8751C22.4791 27.3436 22.9688 26.8539 22.9688 26.2498C22.9688 25.6458 22.4791 25.1561 21.8751 25.1561H13.1251Z" fill="white"/>
<path fill-rule="evenodd" clip-rule="evenodd" d="M17.5001 1.82275C16.4674 1.82275 15.5292 2.11853 14.5113 2.61352C13.5274 3.09201 12.3907 3.79747 10.9709 4.67864L7.95716 6.54906C6.61375 7.38281 5.53802 8.05042 4.70889 8.68539C3.8503 9.34293 3.19084 10.0126 2.71449 10.8828C2.23914 11.7513 2.02508 12.6753 1.92244 13.7675C1.82298 14.826 1.82299 16.1204 1.823 17.7437V20.0955C1.82298 22.872 1.82296 25.0636 2.04569 26.7772C2.27417 28.535 2.75424 29.9541 3.83894 31.0761C4.92864 32.2033 6.31533 32.7068 8.03201 32.9456C9.69579 33.177 11.8207 33.1769 14.4986 33.1769H20.5015C23.1794 33.1769 25.3044 33.177 26.9682 32.9456C28.6848 32.7068 30.0715 32.2033 31.1612 31.0761C32.2459 29.9541 32.726 28.535 32.9545 26.7772C33.1772 25.0636 33.1772 22.872 33.1772 20.0955V17.7437C33.1772 16.1205 33.1772 14.826 33.0777 13.7675C32.9751 12.6753 32.761 11.7513 32.2857 10.8828C31.8093 10.0126 31.1499 9.34293 30.2913 8.68539C29.4621 8.05043 28.3864 7.38282 27.043 6.54909L24.0292 4.67863C22.6095 3.79746 21.4728 3.092 20.4889 2.61352C19.471 2.11853 18.5328 1.82275 17.5001 1.82275ZM12.0744 6.56834C13.5557 5.64899 14.5973 5.00416 15.468 4.58075C16.3162 4.16823 16.917 4.01025 17.5001 4.01025C18.0832 4.01025 18.6839 4.16823 19.5322 4.58075C20.4029 5.00416 21.4445 5.64899 22.9258 6.56834L25.8424 8.37851C27.2436 9.24814 28.2274 9.86014 28.9612 10.4221C29.6752 10.9689 30.086 11.4201 30.3668 11.9332C30.6486 12.448 30.8132 13.05 30.8998 13.9722C30.9886 14.9165 30.9897 16.1083 30.9897 17.7972V20.0154C30.9897 22.8897 30.9875 24.939 30.7852 26.4952C30.5866 28.0236 30.2124 28.9104 29.5885 29.5557C28.9697 30.1958 28.1272 30.5758 26.6668 30.7789C25.1712 30.9869 23.1986 30.9894 20.4167 30.9894H14.5834C11.8016 30.9894 9.829 30.9869 8.33332 30.7789C6.873 30.5758 6.03049 30.1958 5.41165 29.5557C4.78781 28.9104 4.4136 28.0236 4.21494 26.4952C4.01267 24.939 4.0105 22.8897 4.0105 20.0154V17.7972C4.0105 16.1083 4.01161 14.9165 4.10035 13.9722C4.18701 13.05 4.35152 12.448 4.63334 11.9332C4.91416 11.4201 5.32493 10.9689 6.03892 10.4221C6.77273 9.86014 7.75651 9.24814 9.15773 8.37851L12.0744 6.56834Z" fill="white"/>
</svg>
