<svg width="40" height="40" viewBox="0 0 40 40" fill="none" xmlns="http://www.w3.org/2000/svg">
<path d="M31.6285 8.37152L32.1588 7.84119L31.6285 8.37152ZM31.6285 24.6507L32.1588 25.181L31.6285 24.6507ZM11.9093 21.1139L11.379 20.5836L11.379 20.5836L11.9093 21.1139ZM5.72249 27.3007L6.25282 27.8311H6.25282L5.72249 27.3007ZM12.6993 34.2775L12.1689 33.7472H12.1689L12.6993 34.2775ZM18.8865 28.0902L18.3562 27.5599L18.8865 28.0902ZM5.0151 29.3173L4.26969 29.4002L5.0151 29.3173ZM5.40188 32.7983L4.65647 32.8811L4.65647 32.8811L5.40188 32.7983ZM7.20169 34.5981L7.11886 35.3435L7.11886 35.3435L7.20169 34.5981ZM10.6827 34.9849L10.7655 34.2395H10.7655L10.6827 34.9849ZM5.87347 33.7795L6.4038 33.2492L6.4038 33.2492L5.87347 33.7795ZM6.22049 34.1265L5.69016 34.6569L5.69016 34.6569L6.22049 34.1265ZM12.3405 19.3852L11.6141 19.5717L12.3405 19.3852ZM20.6148 27.6595L20.4283 28.3859L20.6148 27.6595ZM12.3789 28.7938C12.0844 28.5025 11.6096 28.5051 11.3183 28.7996C11.027 29.0941 11.0296 29.5689 11.3241 29.8602L12.3789 28.7938ZM21.5066 18.4934C20.4978 17.4845 20.4978 15.8488 21.5066 14.84L20.446 13.7793C18.8513 15.374 18.8513 17.9594 20.446 19.554L21.5066 18.4934ZM25.16 18.4934C24.1512 19.5022 22.5155 19.5022 21.5066 18.4934L20.446 19.554C22.0406 21.1487 24.626 21.1487 26.2207 19.554L25.16 18.4934ZM25.16 14.84C26.1689 15.8488 26.1689 17.4845 25.16 18.4934L26.2207 19.554C27.8153 17.9594 27.8153 15.374 26.2207 13.7793L25.16 14.84ZM26.2207 13.7793C24.626 12.1847 22.0406 12.1847 20.446 13.7793L21.5066 14.84C22.5155 13.8311 24.1512 13.8311 25.16 14.84L26.2207 13.7793ZM31.0982 8.90185C35.3006 13.1043 35.3006 19.9179 31.0982 24.1203L32.1588 25.181C36.9471 20.3927 36.9471 12.6294 32.1588 7.84119L31.0982 8.90185ZM32.1588 7.84119C27.3706 3.05294 19.6073 3.05294 14.819 7.84119L15.8797 8.90185C20.0821 4.69938 26.8957 4.69938 31.0982 8.90185L32.1588 7.84119ZM11.379 20.5836L5.19216 26.7704L6.25282 27.8311L12.4396 21.6443L11.379 20.5836ZM13.2296 34.8078L15.2969 32.7405L14.2363 31.6798L12.1689 33.7472L13.2296 34.8078ZM15.2969 32.7405L19.4169 28.6206L18.3562 27.5599L14.2363 31.6798L15.2969 32.7405ZM4.26969 29.4002L4.65647 32.8811L6.14729 32.7155L5.76052 29.2345L4.26969 29.4002ZM7.11886 35.3435L10.5998 35.7303L10.7655 34.2395L7.28451 33.8527L7.11886 35.3435ZM5.34313 34.3098L5.69016 34.6569L6.75082 33.5962L6.4038 33.2492L5.34313 34.3098ZM7.28451 33.8527C7.08265 33.8303 6.89443 33.7398 6.75082 33.5962L5.69016 34.6569C6.07462 35.0413 6.57849 35.2835 7.11886 35.3435L7.28451 33.8527ZM4.65647 32.8811C4.71651 33.4215 4.95868 33.9254 5.34314 34.3098L6.4038 33.2492C6.26018 33.1056 6.16972 32.9173 6.14729 32.7155L4.65647 32.8811ZM12.1689 33.7472C11.8002 34.1159 11.2838 34.2971 10.7655 34.2395L10.5998 35.7303C11.571 35.8382 12.5386 35.4988 13.2296 34.8078L12.1689 33.7472ZM5.19216 26.7704C4.5012 27.4614 4.16178 28.429 4.26969 29.4002L5.76052 29.2345C5.70293 28.7162 5.88406 28.1998 6.25282 27.8311L5.19216 26.7704ZM13.067 19.1987C12.1512 15.6324 13.0899 11.6916 15.8797 8.90185L14.819 7.84119C11.639 11.0212 10.5719 15.5131 11.6141 19.5717L13.067 19.1987ZM31.0982 24.1203C28.3084 26.9101 24.3676 27.8488 20.8014 26.933L20.4283 28.3859C24.4869 29.4282 28.9788 28.361 32.1588 25.181L31.0982 24.1203ZM19.4169 28.6206C19.6522 28.3852 20.0324 28.2842 20.4283 28.3859L20.8014 26.933C19.9674 26.7189 19.0186 26.8975 18.3562 27.5599L19.4169 28.6206ZM12.4396 21.6443C13.1018 20.982 13.2812 20.0329 13.067 19.1986L11.6141 19.5717C11.7157 19.9673 11.6145 20.348 11.379 20.5836L12.4396 21.6443ZM15.294 31.6769L12.3789 28.7938L11.3241 29.8602L14.2392 32.7434L15.294 31.6769Z" fill="black" fill-opacity="0.87"/>
</svg>
