<svg width="35" height="35" viewBox="0 0 35 35" fill="none" xmlns="http://www.w3.org/2000/svg">
<path d="M9.43502 25.565C9.00788 25.1379 9.00788 24.4454 9.43502 24.0182L12.672 20.7812H10.9376C10.3335 20.7812 9.84383 20.2915 9.84383 19.6875C9.84383 19.0834 10.3335 18.5937 10.9376 18.5937H15.3126C15.9166 18.5937 16.4063 19.0834 16.4063 19.6875V24.0625C16.4063 24.6665 15.9166 25.1562 15.3126 25.1562C14.7085 25.1562 14.2188 24.6665 14.2188 24.0625V22.328L10.9818 25.565C10.5547 25.9922 9.86215 25.9922 9.43502 25.565Z" fill="white"/>
<path d="M24.0626 16.4062C24.6666 16.4062 25.1563 15.9165 25.1563 15.3125C25.1563 14.7084 24.6666 14.2187 24.0626 14.2187H22.3281L25.5651 10.9817C25.9923 10.5546 25.9923 9.86203 25.5651 9.4349C25.138 9.00776 24.4455 9.00776 24.0184 9.4349L20.7813 12.6719V10.9375C20.7813 10.3334 20.2916 9.84371 19.6876 9.84371C19.0835 9.84371 18.5938 10.3334 18.5938 10.9375V15.3125C18.5938 15.9165 19.0835 16.4062 19.6876 16.4062H24.0626Z" fill="white"/>
<path fill-rule="evenodd" clip-rule="evenodd" d="M17.4164 1.82288H17.5838C20.9502 1.82286 23.5883 1.82284 25.6468 2.09959C27.7537 2.38286 29.4162 2.97398 30.7211 4.27891C32.0261 5.58384 32.6172 7.24637 32.9005 9.35328C33.1772 11.4117 33.1772 14.0499 33.1772 17.4163V17.5836C33.1772 20.95 33.1772 23.5882 32.9005 25.6466C32.6172 27.7535 32.0261 29.4161 30.7211 30.721C29.4162 32.0259 27.7537 32.6171 25.6468 32.9003C23.5883 33.1771 20.9502 33.1771 17.5838 33.177H17.4164C14.05 33.1771 11.4118 33.1771 9.3534 32.9003C7.2465 32.6171 5.58396 32.0259 4.27903 30.721C2.9741 29.4161 2.38298 27.7535 2.09971 25.6466C1.82296 23.5882 1.82298 20.95 1.823 17.5836V17.4163C1.82298 14.0499 1.82296 11.4117 2.09971 9.35328C2.38298 7.24637 2.9741 5.58384 4.27903 4.27891C5.58396 2.97398 7.2465 2.38286 9.3534 2.09959C11.4118 1.82284 14.05 1.82286 17.4164 1.82288ZM9.64488 4.26758C7.78054 4.51824 6.65658 4.99496 5.82583 5.8257C4.99508 6.65645 4.51836 7.78042 4.26771 9.64476C4.01282 11.5406 4.0105 14.0317 4.0105 17.5C4.0105 20.9682 4.01282 23.4594 4.26771 25.3552C4.51836 27.2195 4.99508 28.3435 5.82583 29.1742C6.65658 30.005 7.78054 30.4817 9.64488 30.7323C11.5407 30.9872 14.0318 30.9895 17.5001 30.9895C20.9683 30.9895 23.4595 30.9872 25.3553 30.7323C27.2196 30.4817 28.3436 30.005 29.1743 29.1742C30.0051 28.3435 30.4818 27.2195 30.7325 25.3552C30.9873 23.4594 30.9897 20.9682 30.9897 17.5C30.9897 14.0317 30.9873 11.5406 30.7325 9.64476C30.4818 7.78042 30.0051 6.65645 29.1743 5.8257C28.3436 4.99496 27.2196 4.51824 25.3553 4.26758C23.4595 4.0127 20.9683 4.01038 17.5001 4.01038C14.0318 4.01038 11.5407 4.0127 9.64488 4.26758Z" fill="white"/>
</svg>
