<svg width="35" height="35" viewBox="0 0 35 35" fill="none" xmlns="http://www.w3.org/2000/svg">
<path d="M18.5938 2.91663C18.5938 2.31256 18.1041 1.82288 17.5 1.82288C16.8959 1.82288 16.4062 2.31256 16.4062 2.91663V8.74996C16.4062 9.35402 16.8959 9.84371 17.5 9.84371C18.1041 9.84371 18.5938 9.35402 18.5938 8.74996V2.91663Z" fill="white"/>
<path d="M12.8215 6.41193C13.3779 6.17683 13.6384 5.53517 13.4033 4.97874C13.1683 4.4223 12.5266 4.1618 11.9702 4.3969C6.86631 6.55331 3.28125 11.6067 3.28125 17.5C3.28125 25.3528 9.6472 31.7187 17.5 31.7187C25.3528 31.7187 31.7188 25.3528 31.7188 17.5C31.7188 11.6067 28.1337 6.55331 23.0298 4.3969C22.4734 4.1618 21.8318 4.4223 21.5967 4.97874C21.3616 5.53517 21.6221 6.17683 22.1785 6.41193C26.5011 8.23827 29.5312 12.5165 29.5312 17.5C29.5312 24.1446 24.1447 29.5312 17.5 29.5312C10.8553 29.5312 5.46875 24.1446 5.46875 17.5C5.46875 12.5165 8.49886 8.23827 12.8215 6.41193Z" fill="white"/>
</svg>
