<svg width="40" height="40" viewBox="0 0 40 40" fill="none" xmlns="http://www.w3.org/2000/svg">
<path d="M13.0718 6.33702C16.453 4.33467 18.1436 3.3335 20 3.3335C21.8564 3.3335 23.547 4.33467 26.9282 6.33702L28.0718 7.01426C31.453 9.01661 33.1436 10.0178 34.0718 11.6668C35 13.3159 35 15.3182 35 19.3229V20.6774C35 24.6821 35 26.6844 34.0718 28.3335C33.1436 29.9825 31.453 30.9837 28.0718 32.9861L26.9282 33.6633C23.547 35.6657 21.8564 36.6668 20 36.6668C18.1436 36.6668 16.453 35.6657 13.0718 33.6633L11.9282 32.9861C8.547 30.9837 6.85641 29.9825 5.9282 28.3335C5 26.6844 5 24.6821 5 20.6774V19.3229C5 15.3182 5 13.3159 5.9282 11.6668C6.85641 10.0178 8.547 9.01661 11.9282 7.01426L13.0718 6.33702Z" stroke="black" stroke-opacity="0.87" stroke-width="1.5"/>
<circle cx="20" cy="20" r="5" stroke="black" stroke-opacity="0.87" stroke-width="1.5"/>
</svg>
