<svg width="35" height="35" viewBox="0 0 35 35" fill="none" xmlns="http://www.w3.org/2000/svg">
<path fill-rule="evenodd" clip-rule="evenodd" d="M20.8233 3.13852C20.2832 2.9165 19.5985 2.9165 18.2292 2.9165C16.8598 2.9165 16.1752 2.9165 15.6351 3.13852C14.915 3.43455 14.3428 4.00235 14.0446 4.71701C13.9084 5.04325 13.8551 5.42265 13.8343 5.97607C13.8036 6.78937 13.3834 7.54218 12.6732 7.94911C11.963 8.35603 11.0959 8.34083 10.3709 7.96053C9.87756 7.70173 9.51984 7.55783 9.16707 7.51174C8.3943 7.41077 7.61276 7.6186 6.99439 8.0895C6.53062 8.44268 6.18828 9.03115 5.50361 10.2081C4.81894 11.385 4.4766 11.9735 4.4003 12.5487C4.29856 13.3156 4.50797 14.0912 4.98246 14.7049C5.19904 14.985 5.50342 15.2205 5.97582 15.5151C6.67029 15.9481 7.11714 16.6859 7.11709 17.4999C7.11705 18.3138 6.67022 19.0514 5.97581 19.4844C5.50334 19.779 5.19892 20.0145 4.98232 20.2947C4.50783 20.9084 4.29842 21.684 4.40015 22.4509C4.47646 23.0261 4.81879 23.6146 5.50346 24.7915C6.18814 25.9684 6.53047 26.5569 6.99425 26.9101C7.61262 27.381 8.39415 27.5888 9.16692 27.4878C9.51967 27.4417 9.87737 27.2979 10.3707 27.0391C11.0958 26.6588 11.9629 26.6436 12.6731 27.0505C13.3833 27.4575 13.8036 28.2103 13.8343 29.0237C13.8551 29.5771 13.9084 29.9564 14.0446 30.2827C14.3428 30.9973 14.915 31.5651 15.6351 31.8612C16.1752 32.0832 16.8598 32.0832 18.2292 32.0832C19.5985 32.0832 20.2832 32.0832 20.8233 31.8612C21.5434 31.5651 22.1155 30.9973 22.4138 30.2827C22.5499 29.9564 22.6032 29.577 22.6241 29.0236C22.6547 28.2103 23.0749 27.4575 23.7851 27.0505C24.4953 26.6435 25.3625 26.6587 26.0875 27.039C26.5808 27.2978 26.9385 27.4416 27.2913 27.4877C28.064 27.5887 28.8456 27.3809 29.4639 26.91C29.9277 26.5568 30.2701 25.9683 30.9547 24.7914C31.6394 23.6145 31.9817 23.026 32.058 22.4508C32.1598 21.6839 31.9504 20.9083 31.4759 20.2946C31.2593 20.0144 30.9549 19.7789 30.4824 19.4843C29.788 19.0513 29.3412 18.3136 29.3412 17.4997C29.3413 16.6859 29.7881 15.9483 30.4824 15.5153C30.955 15.2207 31.2594 14.9852 31.476 14.705C31.9505 14.0913 32.1599 13.3157 32.0582 12.5488C31.9819 11.9736 31.6395 11.3851 30.9549 10.2082C30.2702 9.03125 29.9279 8.44278 29.4641 8.0896C28.8457 7.6187 28.0642 7.41087 27.2914 7.51184C26.9387 7.55793 26.581 7.70182 26.0876 7.96058C25.3626 8.34091 24.4955 8.35611 23.7852 7.94916C23.075 7.5422 22.6547 6.78934 22.6241 5.976C22.6032 5.42262 22.5499 5.04324 22.4138 4.71701C22.1155 4.00235 21.5434 3.43455 20.8233 3.13852ZM18.2292 21.8748C20.6638 21.8748 22.6375 19.9161 22.6375 17.4998C22.6375 15.0836 20.6638 13.1248 18.2292 13.1248C15.7945 13.1248 13.8209 15.0836 13.8209 17.4998C13.8209 19.9161 15.7945 21.8748 18.2292 21.8748Z" fill="white"/>
</svg>
