<svg width="35" height="35" viewBox="0 0 35 35" fill="none" xmlns="http://www.w3.org/2000/svg">
<circle cx="17.5" cy="17.5" r="4.375" stroke="white" stroke-width="2.23077"/>
<path d="M20.0747 3.13864C19.5387 2.91663 18.8592 2.91663 17.5002 2.91663C16.1412 2.91663 15.4617 2.91663 14.9257 3.13864C14.211 3.43467 13.6432 4.00247 13.3472 4.71713C13.2121 5.04337 13.1592 5.42277 13.1385 5.9762C13.1081 6.78949 12.691 7.54231 11.9862 7.94923C11.2814 8.35616 10.4209 8.34096 9.70134 7.96065C9.21171 7.70186 8.85669 7.55795 8.50659 7.51186C7.73966 7.41089 6.96403 7.61872 6.35033 8.08963C5.89006 8.44281 5.55031 9.03127 4.87081 10.2082C4.19131 11.3851 3.85157 11.9736 3.77584 12.5488C3.67487 13.3157 3.8827 14.0913 4.35361 14.705C4.56854 14.9851 4.87062 15.2206 5.33945 15.5152C6.02868 15.9483 6.47215 16.686 6.4721 17.5C6.47206 18.3139 6.02861 19.0515 5.33945 19.4845C4.87054 19.7792 4.56842 20.0146 4.35346 20.2948C3.88256 20.9085 3.67473 21.6841 3.7757 22.451C3.85142 23.0262 4.19117 23.6147 4.87067 24.7916C5.55017 25.9686 5.88992 26.557 6.35019 26.9102C6.96389 27.3811 7.73951 27.5889 8.50645 27.488C8.85653 27.4419 9.21152 27.298 9.70111 27.0392C10.4207 26.6589 11.2812 26.6437 11.9861 27.0506C12.691 27.4576 13.1081 28.2105 13.1385 29.0238C13.1592 29.5772 13.2121 29.9566 13.3472 30.2828C13.6432 30.9975 14.211 31.5653 14.9257 31.8613C15.4617 32.0833 16.1412 32.0833 17.5002 32.0833C18.8592 32.0833 19.5387 32.0833 20.0747 31.8613C20.7894 31.5653 21.3572 30.9975 21.6532 30.2828C21.7883 29.9565 21.8412 29.5771 21.8619 29.0237C21.8923 28.2104 22.3094 27.4576 23.0141 27.0506C23.719 26.6436 24.5796 26.6588 25.2992 27.0391C25.7888 27.2979 26.1438 27.4418 26.4938 27.4879C27.2608 27.5888 28.0364 27.381 28.6501 26.9101C29.1104 26.5569 29.4501 25.9685 30.1296 24.7915C30.8091 23.6146 31.1489 23.0261 31.2246 22.4509C31.3255 21.684 31.1177 20.9084 30.6468 20.2947C30.4319 20.0146 30.1298 19.7791 29.6609 19.4845C28.9717 19.0514 28.5283 18.3138 28.5283 17.4998C28.5284 16.686 28.9718 15.9484 29.6609 15.5154C30.1298 15.2208 30.432 14.9853 30.647 14.7051C31.1179 14.0914 31.3257 13.3158 31.2247 12.5489C31.149 11.9737 30.8092 11.3852 30.1297 10.2083C29.4502 9.03137 29.1105 8.44291 28.6502 8.08973C28.0365 7.61882 27.2609 7.41099 26.494 7.51196C26.1439 7.55805 25.7889 7.70194 25.2993 7.96071C24.5797 8.34103 23.7192 8.35624 23.0143 7.94928C22.3094 7.54232 21.8923 6.78946 21.8619 5.97612C21.8412 5.42274 21.7883 5.04336 21.6532 4.71713C21.3572 4.00247 20.7894 3.43467 20.0747 3.13864Z" stroke="white" stroke-width="2.23077"/>
</svg>
