<svg width="40" height="41" viewBox="0 0 40 41" fill="none" xmlns="http://www.w3.org/2000/svg">
<path d="M33.1669 4.34548C32.8987 3.66284 31.9361 3.66284 31.6679 4.34548L30.9506 6.17095C30.8687 6.37937 30.7043 6.54434 30.4967 6.62654L28.6779 7.3465C27.9978 7.61573 27.9978 8.58184 28.6779 8.85107L30.4967 9.57102C30.7043 9.65322 30.8687 9.8182 30.9506 10.0266L31.6679 11.8521C31.9361 12.5347 32.8987 12.5347 33.1669 11.8521L33.8842 10.0266C33.9661 9.8182 34.1305 9.65322 34.3381 9.57102L36.1569 8.85107C36.837 8.58184 36.837 7.61573 36.1569 7.3465L34.3381 6.62654C34.1305 6.54434 33.9661 6.37937 33.8842 6.17095L33.1669 4.34548Z" stroke="black" stroke-opacity="0.87"/>
<path d="M26.7213 14.0496C26.4531 13.367 25.4906 13.367 25.2223 14.0496L24.9608 14.7152C24.8789 14.9236 24.7145 15.0886 24.5069 15.1708L23.8437 15.4333C23.1636 15.7025 23.1636 16.6686 23.8437 16.9378L24.5069 17.2003C24.7145 17.2825 24.8789 17.4475 24.9608 17.6559L25.2223 18.3215C25.4906 19.0042 26.4531 19.0042 26.7213 18.3215L26.9829 17.6559C27.0648 17.4475 27.2291 17.2825 27.4368 17.2003L28.0999 16.9378C28.78 16.6686 28.78 15.7025 28.0999 15.4333L27.4368 15.1708C27.2291 15.0886 27.0648 14.9236 26.9829 14.7152L26.7213 14.0496Z" stroke="black" stroke-opacity="0.87"/>
<path d="M35.112 20.2616L34.4701 19.8737L35.112 20.2616ZM20.2385 5.3881L19.8506 4.74619V4.74619L20.2385 5.3881ZM35.9166 20.5002C35.9166 29.2907 28.7905 36.4168 19.9999 36.4168V37.9168C29.6189 37.9168 37.4166 30.1191 37.4166 20.5002H35.9166ZM19.9999 36.4168C11.2094 36.4168 4.08325 29.2907 4.08325 20.5002H2.58325C2.58325 30.1191 10.381 37.9168 19.9999 37.9168V36.4168ZM4.08325 20.5002C4.08325 11.7096 11.2094 4.5835 19.9999 4.5835V3.0835C10.381 3.0835 2.58325 10.8812 2.58325 20.5002H4.08325ZM25.8333 24.7502C20.2644 24.7502 15.7499 20.2357 15.7499 14.6668H14.2499C14.2499 21.0641 19.436 26.2502 25.8333 26.2502V24.7502ZM34.4701 19.8737C32.7031 22.7979 29.4958 24.7502 25.8333 24.7502V26.2502C30.0425 26.2502 33.7266 24.0045 35.7539 20.6494L34.4701 19.8737ZM15.7499 14.6668C15.7499 11.0043 17.7022 7.797 20.6264 6.03001L19.8506 4.74619C16.4956 6.7735 14.2499 10.4576 14.2499 14.6668H15.7499ZM19.9999 4.5835C20.0009 4.5835 19.9866 4.58328 19.9647 4.57391C19.9429 4.56466 19.9257 4.55161 19.9145 4.53991C19.8947 4.51933 19.9069 4.51927 19.9127 4.56162C19.9181 4.60216 19.9123 4.64915 19.8963 4.6874C19.8818 4.72184 19.8648 4.73764 19.8506 4.74619L20.6264 6.03001C21.2615 5.64623 21.4766 4.93409 21.3992 4.36086C21.3194 3.77033 20.8708 3.0835 19.9999 3.0835V4.5835ZM35.7539 20.6495C35.7624 20.6353 35.7782 20.6182 35.8127 20.6038C35.8509 20.5878 35.8979 20.582 35.9385 20.5874C35.9808 20.5931 35.9808 20.6054 35.9602 20.5856C35.9485 20.5744 35.9354 20.5571 35.9262 20.5354C35.9168 20.5134 35.9166 20.4992 35.9166 20.5002H37.4166C37.4166 19.6293 36.7297 19.1807 36.1392 19.1009C35.566 19.0235 34.8539 19.2386 34.4701 19.8737L35.7539 20.6495Z" fill="black" fill-opacity="0.87"/>
</svg>
