<svg width="32" height="32" viewBox="0 0 32 32" fill="none" xmlns="http://www.w3.org/2000/svg">
<path d="M2.65796 16C2.65796 9.73499 2.65796 6.60251 4.60423 4.65624C6.55051 2.70996 9.68299 2.70996 15.948 2.70996C22.2129 2.70996 25.3454 2.70996 27.2917 4.65624C29.238 6.60251 29.238 9.73499 29.238 16C29.238 22.2649 29.238 25.3974 27.2917 27.3437C25.3454 29.29 22.2129 29.29 15.948 29.29C9.68299 29.29 6.55051 29.29 4.60423 27.3437C2.65796 25.3974 2.65796 22.2649 2.65796 16Z" stroke="#A3A3A3" stroke-width="1.9935"/>
<path d="M28.5735 10.684H3.32251" stroke="#A3A3A3" stroke-width="1.9935" stroke-linecap="round"/>
<path d="M13.9545 3.37451L9.30298 10.684" stroke="#A3A3A3" stroke-width="1.9935" stroke-linecap="round"/>
<path d="M22.5929 3.37451L17.9414 10.684" stroke="#A3A3A3" stroke-width="1.9935" stroke-linecap="round"/>
<path d="M19.935 19.3224C19.935 18.4807 19.0552 17.913 17.2956 16.7777C15.5119 15.6268 14.6201 15.0514 13.9551 15.4739C13.29 15.8964 13.29 17.0384 13.29 19.3224C13.29 21.6065 13.29 22.7485 13.9551 23.171C14.6201 23.5935 15.5119 23.0181 17.2956 21.8672C19.0552 20.7319 19.935 20.1642 19.935 19.3224Z" stroke="#A3A3A3" stroke-width="1.9935" stroke-linecap="round"/>
</svg>
