<svg width="40" height="40" viewBox="0 0 40 40" fill="none" xmlns="http://www.w3.org/2000/svg">
<path d="M15.0001 20.0002C15.0001 20.9206 14.2539 21.6668 13.3334 21.6668C12.4129 21.6668 11.6667 20.9206 11.6667 20.0002C11.6667 19.0797 12.4129 18.3335 13.3334 18.3335C14.2539 18.3335 15.0001 19.0797 15.0001 20.0002Z" fill="black" fill-opacity="0.87"/>
<path d="M21.6666 20.0002C21.6666 20.9206 20.9204 21.6668 19.9999 21.6668C19.0794 21.6668 18.3333 20.9206 18.3333 20.0002C18.3333 19.0797 19.0794 18.3335 19.9999 18.3335C20.9204 18.3335 21.6666 19.0797 21.6666 20.0002Z" fill="black" fill-opacity="0.87"/>
<path d="M25 3.3335V36.6668" stroke="black" stroke-opacity="0.87" stroke-width="1.5" stroke-linecap="round"/>
<path d="M36.6666 19.9998C36.6666 26.2852 36.6666 29.4279 34.714 31.3805C32.9421 33.1524 30.1904 33.3164 24.9999 33.3316M19.9999 6.6665H16.6666C10.3812 6.6665 7.2385 6.6665 5.28587 8.61913C3.33325 10.5717 3.33325 13.7144 3.33325 19.9998C3.33325 26.2852 3.33325 29.4279 5.28587 31.3805C7.2385 33.3332 10.3812 33.3332 16.6666 33.3332H19.9999M24.9999 6.66805C30.1904 6.68324 32.9421 6.8473 34.714 8.61913C35.8026 9.70776 36.2843 11.1663 36.4974 13.3332" stroke="black" stroke-opacity="0.87" stroke-width="1.5" stroke-linecap="round"/>
</svg>
